# Blender 4.5.1 LTS
# www.blender.org
o Cylinder
v 0.000000 0.500000 0.000000 0.3765 0.2588 0.0706
v 0.000000 0.500000 2.000000 0.3765 0.2588 0.0706
v 0.191342 0.461940 0.000000 0.3765 0.2588 0.0706
v 0.191342 0.461940 2.000000 0.3765 0.2588 0.0706
v 0.353553 0.353553 0.000000 0.3765 0.2588 0.0706
v 0.353553 0.353553 2.000000 0.3765 0.2588 0.0706
v 0.461940 0.191342 0.000000 0.3765 0.2588 0.0706
v 0.461940 0.191342 2.000000 0.3765 0.2588 0.0706
v 0.500000 0.000000 0.000000 0.3765 0.2588 0.0706
v 0.500000 0.000000 2.000000 0.3765 0.2588 0.0706
v 0.461940 -0.191342 0.000000 0.3765 0.2588 0.0706
v 0.461940 -0.191342 2.000000 0.3765 0.2588 0.0706
v 0.353553 -0.353553 0.000000 0.3765 0.2588 0.0706
v 0.353553 -0.353553 2.000000 0.3765 0.2588 0.0706
v 0.191342 -0.461940 0.000000 0.3765 0.2588 0.0706
v 0.191342 -0.461940 2.000000 0.3765 0.2588 0.0706
v 0.000000 -0.500000 0.000000 0.3765 0.2588 0.0706
v 0.000000 -0.500000 2.000000 0.3765 0.2588 0.0706
v -0.191342 -0.461940 0.000000 0.3765 0.2588 0.0706
v -0.191342 -0.461940 2.000000 0.3765 0.2588 0.0706
v -0.353553 -0.353553 0.000000 0.3765 0.2588 0.0706
v -0.353553 -0.353553 2.000000 0.3765 0.2588 0.0706
v -0.461940 -0.191342 0.000000 0.3765 0.2588 0.0706
v -0.461940 -0.191342 2.000000 0.3765 0.2588 0.0706
v -0.500000 0.000000 0.000000 0.3765 0.2588 0.0706
v -0.500000 0.000000 2.000000 0.3765 0.2588 0.0706
v -0.461940 0.191342 0.000000 0.3765 0.2588 0.0706
v -0.461940 0.191342 2.000000 0.3765 0.2588 0.0706
v -0.353553 0.353553 0.000000 0.3765 0.2588 0.0706
v -0.353553 0.353553 2.000000 0.3765 0.2588 0.0706
v -0.191342 0.461940 0.000000 0.3765 0.2588 0.0706
v -0.191342 0.461940 2.000000 0.3765 0.2588 0.0706
vn 0.1951 0.9808 -0.0000
vn 0.5556 0.8315 -0.0000
vn 0.8315 0.5556 -0.0000
vn 0.9808 0.1951 -0.0000
vn 0.9808 -0.1951 -0.0000
vn 0.8315 -0.5556 -0.0000
vn 0.5556 -0.8315 -0.0000
vn 0.1951 -0.9808 -0.0000
vn -0.1951 -0.9808 -0.0000
vn -0.5556 -0.8315 -0.0000
vn -0.8315 -0.5556 -0.0000
vn -0.9808 -0.1951 -0.0000
vn -0.9808 0.1951 -0.0000
vn -0.8315 0.5556 -0.0000
vn -0.0000 -0.0000 1.0000
vn -0.5556 0.8315 -0.0000
vn -0.1951 0.9808 -0.0000
vn -0.0000 -0.0000 -1.0000
s 0
f 2//1 3//1 1//1
f 4//2 5//2 3//2
f 6//3 7//3 5//3
f 8//4 9//4 7//4
f 10//5 11//5 9//5
f 12//6 13//6 11//6
f 14//7 15//7 13//7
f 16//8 17//8 15//8
f 18//9 19//9 17//9
f 20//10 21//10 19//10
f 22//11 23//11 21//11
f 24//12 25//12 23//12
f 26//13 27//13 25//13
f 28//14 29//14 27//14
f 22//15 14//15 6//15
f 30//16 31//16 29//16
f 32//17 1//17 31//17
f 15//18 23//18 31//18
f 2//1 4//1 3//1
f 4//2 6//2 5//2
f 6//3 8//3 7//3
f 8//4 10//4 9//4
f 10//5 12//5 11//5
f 12//6 14//6 13//6
f 14//7 16//7 15//7
f 16//8 18//8 17//8
f 18//9 20//9 19//9
f 20//10 22//10 21//10
f 22//11 24//11 23//11
f 24//12 26//12 25//12
f 26//13 28//13 27//13
f 28//14 30//14 29//14
f 6//15 4//15 2//15
f 2//15 32//15 30//15
f 30//15 28//15 26//15
f 26//15 24//15 22//15
f 22//15 20//15 18//15
f 18//15 16//15 14//15
f 14//15 12//15 10//15
f 10//15 8//15 6//15
f 6//15 2//15 30//15
f 30//15 26//15 22//15
f 22//15 18//15 14//15
f 14//15 10//15 6//15
f 6//15 30//15 22//15
f 30//16 32//16 31//16
f 32//17 2//17 1//17
f 31//18 1//18 3//18
f 3//18 5//18 7//18
f 7//18 9//18 11//18
f 11//18 13//18 15//18
f 15//18 17//18 19//18
f 19//18 21//18 23//18
f 23//18 25//18 27//18
f 27//18 29//18 31//18
f 31//18 3//18 7//18
f 7//18 11//18 15//18
f 15//18 19//18 23//18
f 23//18 27//18 31//18
f 31//18 7//18 15//18
o Cone
v 0.000000 1.000000 2.000000 0.0784 0.4510 0.0000
v 0.382683 0.923880 2.000000 0.0784 0.4510 0.0000
v 0.707107 0.707107 2.000000 0.0784 0.4510 0.0000
v 0.923880 0.382683 2.000000 0.0784 0.4510 0.0000
v 1.000000 0.000000 2.000000 0.0784 0.4510 0.0000
v 0.923880 -0.382683 2.000000 0.0784 0.4510 0.0000
v 0.707107 -0.707107 2.000000 0.0784 0.4510 0.0000
v 0.382683 -0.923880 2.000000 0.0784 0.4510 0.0000
v 0.000000 -1.000000 2.000000 0.0784 0.4510 0.0000
v -0.382683 -0.923880 2.000000 0.0784 0.4510 0.0000
v -0.707107 -0.707107 2.000000 0.0784 0.4510 0.0000
v -0.923880 -0.382683 2.000000 0.0784 0.4510 0.0000
v -1.000000 0.000000 2.000000 0.0784 0.4510 0.0000
v -0.923880 0.382683 2.000000 0.0784 0.4510 0.0000
v -0.707107 0.707107 2.000000 0.0784 0.4510 0.0000
v -0.382683 0.923880 2.000000 0.0784 0.4510 0.0000
v 0.000000 0.000000 4.000000 0.0784 0.4510 0.0000
vn 0.1752 0.8806 0.4403
vn 0.4988 0.7465 0.4403
vn 0.7465 0.4988 0.4403
vn 0.8806 0.1752 0.4403
vn 0.8806 -0.1752 0.4403
vn 0.7465 -0.4988 0.4403
vn 0.4988 -0.7465 0.4403
vn 0.1752 -0.8806 0.4403
vn -0.1752 -0.8806 0.4403
vn -0.4988 -0.7465 0.4403
vn -0.7465 -0.4988 0.4403
vn -0.8806 -0.1752 0.4403
vn -0.8806 0.1752 0.4403
vn -0.7465 0.4988 0.4403
vn -0.0000 -0.0000 -1.0000
vn -0.4988 0.7465 0.4403
vn -0.1752 0.8806 0.4403
s 0
f 33//19 49//19 34//19
f 34//20 49//20 35//20
f 35//21 49//21 36//21
f 36//22 49//22 37//22
f 37//23 49//23 38//23
f 38//24 49//24 39//24
f 39//25 49//25 40//25
f 40//26 49//26 41//26
f 41//27 49//27 42//27
f 42//28 49//28 43//28
f 43//29 49//29 44//29
f 44//30 49//30 45//30
f 45//31 49//31 46//31
f 46//32 49//32 47//32
f 40//33 44//33 48//33
f 47//34 49//34 48//34
f 48//35 49//35 33//35
f 48//33 33//33 34//33
f 34//33 35//33 36//33
f 36//33 37//33 38//33
f 38//33 39//33 40//33
f 40//33 41//33 42//33
f 42//33 43//33 44//33
f 44//33 45//33 46//33
f 46//33 47//33 48//33
f 48//33 34//33 36//33
f 36//33 38//33 40//33
f 40//33 42//33 44//33
f 44//33 46//33 48//33
f 48//33 36//33 40//33
o Cone.001
v 0.000000 0.500000 3.500000 0.0784 0.4510 0.0000
v 0.191342 0.461940 3.500000 0.0784 0.4510 0.0000
v 0.353553 0.353553 3.500000 0.0784 0.4510 0.0000
v 0.461940 0.191342 3.500000 0.0784 0.4510 0.0000
v 0.500000 0.000000 3.500000 0.0784 0.4510 0.0000
v 0.461940 -0.191342 3.500000 0.0784 0.4510 0.0000
v 0.353553 -0.353553 3.500000 0.0784 0.4510 0.0000
v 0.191342 -0.461940 3.500000 0.0784 0.4510 0.0000
v 0.000000 -0.500000 3.500000 0.0784 0.4510 0.0000
v -0.191342 -0.461940 3.500000 0.0784 0.4510 0.0000
v -0.353553 -0.353553 3.500000 0.0784 0.4510 0.0000
v -0.461940 -0.191342 3.500000 0.0784 0.4510 0.0000
v -0.500000 0.000000 3.500000 0.0784 0.4510 0.0000
v -0.461940 0.191342 3.500000 0.0784 0.4510 0.0000
v -0.353553 0.353553 3.500000 0.0784 0.4510 0.0000
v -0.191342 0.461940 3.500000 0.0784 0.4510 0.0000
v 0.000000 0.000000 4.500000 0.0784 0.4510 0.0000
vn 0.1752 0.8806 0.4403
vn 0.4988 0.7465 0.4403
vn 0.7465 0.4988 0.4403
vn 0.8806 0.1752 0.4403
vn 0.8806 -0.1752 0.4403
vn 0.7465 -0.4988 0.4403
vn 0.4988 -0.7465 0.4403
vn 0.1752 -0.8806 0.4403
vn -0.1752 -0.8806 0.4403
vn -0.4988 -0.7465 0.4403
vn -0.7465 -0.4988 0.4403
vn -0.8806 -0.1752 0.4403
vn -0.8806 0.1752 0.4403
vn -0.7465 0.4988 0.4403
vn -0.0000 -0.0000 -1.0000
vn -0.4988 0.7465 0.4403
vn -0.1752 0.8806 0.4403
s 0
f 50//36 66//36 51//36
f 51//37 66//37 52//37
f 52//38 66//38 53//38
f 53//39 66//39 54//39
f 54//40 66//40 55//40
f 55//41 66//41 56//41
f 56//42 66//42 57//42
f 57//43 66//43 58//43
f 58//44 66//44 59//44
f 59//45 66//45 60//45
f 60//46 66//46 61//46
f 61//47 66//47 62//47
f 62//48 66//48 63//48
f 63//49 66//49 64//49
f 57//50 61//50 65//50
f 64//51 66//51 65//51
f 65//52 66//52 50//52
f 65//50 50//50 51//50
f 51//50 52//50 53//50
f 53//50 54//50 55//50
f 55//50 56//50 57//50
f 57//50 58//50 59//50
f 59//50 60//50 61//50
f 61//50 62//50 63//50
f 63//50 64//50 65//50
f 65//50 51//50 53//50
f 53//50 55//50 57//50
f 57//50 59//50 61//50
f 61//50 63//50 65//50
f 65//50 53//50 57//50
