# Blender 4.5.1 LTS
# www.blender.org
o Left_Leg
v 0.100000 -0.100000 -0.600000
v -0.100000 -0.100000 -0.600000
v -0.100000 0.100000 -0.600000
v 0.100000 0.100000 -0.600000
v 0.100000 -0.100000 -0.000000
v 0.100000 0.100000 -0.000000
v -0.100000 0.100000 -0.000000
v -0.100000 -0.100000 -0.000000
v 0.100000 -0.100000 -0.600000
v 0.100000 0.100000 -0.600000
v 0.100000 0.100000 -0.000000
v 0.100000 -0.100000 -0.000000
v 0.100000 0.100000 -0.600000
v -0.100000 0.100000 -0.600000
v -0.100000 0.100000 -0.000000
v 0.100000 0.100000 -0.000000
v -0.100000 0.100000 -0.600000
v -0.100000 -0.100000 -0.600000
v -0.100000 -0.100000 -0.000000
v -0.100000 0.100000 -0.000000
v -0.100000 -0.100000 -0.600000
v 0.100000 -0.100000 -0.600000
v 0.100000 -0.100000 -0.000000
v -0.100000 -0.100000 -0.000000
vn -0.0000 -1.0000 -0.0000
vn -0.0000 -0.0000 1.0000
vn -0.0000 1.0000 -0.0000
vn 1.0000 -0.0000 -0.0000
vn -1.0000 -0.0000 -0.0000
vn -0.0000 -0.0000 -1.0000
vt 0.250000 0.000000
vt 0.312500 0.000000
vt 0.312500 0.187500
vt 0.250000 0.187500
vt 0.375000 0.187500
vt 0.375000 0.250000
vt 0.312500 0.250000
vt 0.375000 0.000000
vt 0.437500 0.000000
vt 0.437500 0.187500
vt 0.500000 0.000000
vt 0.500000 0.187500
vt 0.437500 0.250000
s 0
f 21/1/1 22/2/1 23/3/1 24/4/1
f 5/3/2 6/5/2 7/6/2 8/7/2
f 13/8/3 14/9/3 15/10/3 16/5/3
f 9/2/4 10/8/4 11/5/4 12/3/4
f 17/9/5 18/11/5 19/12/5 20/10/5
f 1/5/6 2/6/6 3/13/6 4/10/6
